<svg width="32" height="32" viewBox="0 0 32 32" fill="none" xmlns="http://www.w3.org/2000/svg">
  <path d="M0 8.42105C0 3.77023 3.77023 0 8.42105 0H23.5789C28.2298 0 32 3.77023 32 8.42105V23.5789C32 28.2298 28.2298 32 23.5789 32H8.42105C3.77023 32 0 28.2298 0 23.5789V8.42105Z" fill="white"/>
  <circle cx="16" cy="16" r="3.5" fill="#101828"/>
  <line x1="16" y1="12.5" x2="16" y2="7" stroke="#101828" stroke-width="1.8" stroke-linecap="round"/>
  <line x1="16" y1="19.5" x2="16" y2="25" stroke="#101828" stroke-width="1.8" stroke-linecap="round"/>
  <line x1="12.5" y1="16" x2="7" y2="16" stroke="#101828" stroke-width="1.8" stroke-linecap="round"/>
  <line x1="19.5" y1="16" x2="25" y2="16" stroke="#101828" stroke-width="1.8" stroke-linecap="round"/>
  <line x1="13.5" y1="13.5" x2="9" y2="9" stroke="#101828" stroke-width="1.5" stroke-linecap="round" opacity="0.6"/>
  <line x1="18.5" y1="18.5" x2="23" y2="23" stroke="#101828" stroke-width="1.5" stroke-linecap="round" opacity="0.6"/>
  <line x1="18.5" y1="13.5" x2="23" y2="9" stroke="#101828" stroke-width="1.5" stroke-linecap="round" opacity="0.6"/>
  <line x1="13.5" y1="18.5" x2="9" y2="23" stroke="#101828" stroke-width="1.5" stroke-linecap="round" opacity="0.6"/>
  <circle cx="16" cy="7" r="2" fill="#101828"/>
  <circle cx="16" cy="25" r="2" fill="#101828"/>
  <circle cx="7" cy="16" r="2" fill="#101828"/>
  <circle cx="25" cy="16" r="2" fill="#101828"/>
</svg>
